<svg xmlns="http://www.w3.org/2000/svg" xmlns:xlink="http://www.w3.org/1999/xlink" width="1000" height="500" viewBox="0,0,1000,500" style="max-width: 100%; height: auto; height: intrinsic;"><g transform="translate(0,470)" fill="none" font-size="10" font-family="sans-serif" text-anchor="middle"><path class="domain" stroke="currentColor" d="M40.5,0.5H970.5"></path><g class="tick" opacity="1" transform="translate(40.5,0)"><line stroke="currentColor" y2="6"></line><text fill="currentColor" y="9" dy="0.71em">1970</text></g><g class="tick" opacity="1" transform="translate(102.91610738255034,0)"><line stroke="currentColor" y2="6"></line><text fill="currentColor" y="9" dy="0.71em">.010</text></g><g class="tick" opacity="1" transform="translate(165.33221476510067,0)"><line stroke="currentColor" y2="6"></line><text fill="currentColor" y="9" dy="0.71em">.020</text></g><g class="tick" opacity="1" transform="translate(227.748322147651,0)"><line stroke="currentColor" y2="6"></line><text fill="currentColor" y="9" dy="0.71em">.030</text></g><g class="tick" opacity="1" transform="translate(290.16442953020135,0)"><line stroke="currentColor" y2="6"></line><text fill="currentColor" y="9" dy="0.71em">.040</text></g><g class="tick" opacity="1" transform="translate(352.58053691275165,0)"><line stroke="currentColor" y2="6"></line><text fill="currentColor" y="9" dy="0.71em">.050</text></g><g class="tick" opacity="1" transform="translate(414.996644295302,0)"><line stroke="currentColor" y2="6"></line><text fill="currentColor" y="9" dy="0.71em">.060</text></g><g class="tick" opacity="1" transform="translate(477.4127516778523,0)"><line stroke="currentColor" y2="6"></line><text fill="currentColor" y="9" dy="0.71em">.070</text></g><g class="tick" opacity="1" transform="translate(539.8288590604027,0)"><line stroke="currentColor" y2="6"></line><text fill="currentColor" y="9" dy="0.71em">.080</text></g><g class="tick" opacity="1" transform="translate(602.2449664429531,0)"><line stroke="currentColor" y2="6"></line><text fill="currentColor" y="9" dy="0.71em">.090</text></g><g class="tick" opacity="1" transform="translate(664.6610738255033,0)"><line stroke="currentColor" y2="6"></line><text fill="currentColor" y="9" dy="0.71em">.100</text></g><g class="tick" opacity="1" transform="translate(727.0771812080537,0)"><line stroke="currentColor" y2="6"></line><text fill="currentColor" y="9" dy="0.71em">.110</text></g><g class="tick" opacity="1" transform="translate(789.493288590604,0)"><line stroke="currentColor" y2="6"></line><text fill="currentColor" y="9" dy="0.71em">.120</text></g><g class="tick" opacity="1" transform="translate(851.9093959731543,0)"><line stroke="currentColor" y2="6"></line><text fill="currentColor" y="9" dy="0.71em">.130</text></g><g class="tick" opacity="1" transform="translate(914.3255033557047,0)"><line stroke="currentColor" y2="6"></line><text fill="currentColor" y="9" dy="0.71em">.140</text></g></g><g transform="translate(40,0)" fill="none" font-size="10" font-family="sans-serif" text-anchor="end"><text x="-40" y="10" fill="currentColor" text-anchor="start">↑ Daily close ($)</text></g><path fill="none" stroke="steelblue" stroke-width="1.5" d="M40,NaNL46.242,NaNL52.483,NaNL58.725,NaNL64.966,NaNL71.208,NaNL77.45,NaNL83.691,NaNL89.933,NaNL96.174,NaNL102.416,NaNL108.658,NaNL114.899,NaNL121.141,NaNL127.383,NaNL133.624,NaNL139.866,NaNL146.107,NaNL152.349,NaNL158.591,NaNL164.832,NaNL171.074,NaNL177.315,NaNL183.557,NaNL189.799,NaNL196.04,NaNL202.282,NaNL208.523,NaNL214.765,NaNL221.007,NaNL227.248,NaNL233.49,NaNL239.732,NaNL245.973,NaNL252.215,NaNL258.456,NaNL264.698,NaNL270.94,NaNL277.181,NaNL283.423,NaNL289.664,NaNL295.906,NaNL302.148,NaNL308.389,NaNL314.631,NaNL320.872,NaNL327.114,NaNL333.356,NaNL339.597,NaNL345.839,NaNL352.081,NaNL358.322,NaNL364.564,NaNL370.805,NaNL377.047,NaNL383.289,NaNL389.53,NaNL395.772,NaNL402.013,NaNL408.255,NaNL414.497,NaNL420.738,NaNL426.98,NaNL433.221,NaNL439.463,NaNL445.705,NaNL451.946,NaNL458.188,NaNL464.43,NaNL470.671,NaNL476.913,NaNL483.154,NaNL489.396,NaNL495.638,NaNL501.879,NaNL508.121,NaNL514.362,NaNL520.604,NaNL526.846,NaNL533.087,NaNL539.329,NaNL545.57,NaNL551.812,NaNL558.054,NaNL564.295,NaNL570.537,NaNL576.779,NaNL583.02,NaNL589.262,NaNL595.503,NaNL601.745,NaNL607.987,NaNL614.228,NaNL620.47,NaNL626.711,NaNL632.953,NaNL639.195,NaNL645.436,NaNL651.678,NaNL657.919,NaNL664.161,NaNL670.403,NaNL676.644,NaNL682.886,NaNL689.128,NaNL695.369,NaNL701.611,NaNL707.852,NaNL714.094,NaNL720.336,NaNL726.577,NaNL732.819,NaNL739.06,NaNL745.302,NaNL751.544,NaNL757.785,NaNL764.027,NaNL770.268,NaNL776.51,NaNL782.752,NaNL788.993,NaNL795.235,NaNL801.477,NaNL807.718,NaNL813.96,NaNL820.201,NaNL826.443,NaNL832.685,NaNL838.926,NaNL845.168,NaNL851.409,NaNL857.651,NaNL863.893,NaNL870.134,NaNL876.376,NaNL882.617,NaNL888.859,NaNL895.101,NaNL901.342,NaNL907.584,NaNL913.826,NaNL920.067,NaNL926.309,NaNL932.55,NaNL938.792,NaNL945.034,NaNL951.275,NaNL957.517,NaNL963.758,NaNL970,NaN"></path></svg>