<svg xmlns="http://www.w3.org/2000/svg" xmlns:xlink="http://www.w3.org/1999/xlink" width="625" height="500" viewBox="0,0,600,500" style="max-width: 100%; height: auto; height: intrinsic;"><g transform="translate(0,480)" fill="none" font-size="10" font-family="sans-serif" text-anchor="middle"><path class="domain" stroke="currentColor" d="M20.5,6V0.5H480.5V6"></path><g class="tick" opacity="1" transform="translate(20.5,0)"><line stroke="currentColor" y2="6"></line><text fill="currentColor" y="9" dy="0.71em">0</text></g><g class="tick" opacity="1" transform="translate(63.092592592592595,0)"><line stroke="currentColor" y2="6"></line><text fill="currentColor" y="9" dy="0.71em">10</text></g><g class="tick" opacity="1" transform="translate(105.68518518518519,0)"><line stroke="currentColor" y2="6"></line><text fill="currentColor" y="9" dy="0.71em">20</text></g><g class="tick" opacity="1" transform="translate(148.2777777777778,0)"><line stroke="currentColor" y2="6"></line><text fill="currentColor" y="9" dy="0.71em">30</text></g><g class="tick" opacity="1" transform="translate(190.87037037037035,0)"><line stroke="currentColor" y2="6"></line><text fill="currentColor" y="9" dy="0.71em">40</text></g><g class="tick" opacity="1" transform="translate(233.46296296296296,0)"><line stroke="currentColor" y2="6"></line><text fill="currentColor" y="9" dy="0.71em">50</text></g><g class="tick" opacity="1" transform="translate(276.0555555555556,0)"><line stroke="currentColor" y2="6"></line><text fill="currentColor" y="9" dy="0.71em">60</text></g><g class="tick" opacity="1" transform="translate(318.6481481481481,0)"><line stroke="currentColor" y2="6"></line><text fill="currentColor" y="9" dy="0.71em">70</text></g><g class="tick" opacity="1" transform="translate(361.2407407407407,0)"><line stroke="currentColor" y2="6"></line><text fill="currentColor" y="9" dy="0.71em">80</text></g><g class="tick" opacity="1" transform="translate(403.8333333333333,0)"><line stroke="currentColor" y2="6"></line><text fill="currentColor" y="9" dy="0.71em">90</text></g><g class="tick" opacity="1" transform="translate(446.4259259259259,0)"><line stroke="currentColor" y2="6"></line><text fill="currentColor" y="9" dy="0.71em">100</text></g></g><g transform="translate(20,0)" fill="none" font-size="10" font-family="sans-serif" text-anchor="end"><path class="domain" stroke="currentColor" d="M-6,480.5H0.5V20.5H-6"></path><g class="tick" opacity="1" transform="translate(0,480.5)"><line stroke="currentColor" x2="-6"></line><text fill="currentColor" x="-9" dy="0.32em">0</text></g><g class="tick" opacity="1" transform="translate(0,437.5093457943925)"><line stroke="currentColor" x2="-6"></line><text fill="currentColor" x="-9" dy="0.32em">10</text></g><g class="tick" opacity="1" transform="translate(0,394.51869158878503)"><line stroke="currentColor" x2="-6"></line><text fill="currentColor" x="-9" dy="0.32em">20</text></g><g class="tick" opacity="1" transform="translate(0,351.52803738317755)"><line stroke="currentColor" x2="-6"></line><text fill="currentColor" x="-9" dy="0.32em">30</text></g><g class="tick" opacity="1" transform="translate(0,308.5373831775701)"><line stroke="currentColor" x2="-6"></line><text fill="currentColor" x="-9" dy="0.32em">40</text></g><g class="tick" opacity="1" transform="translate(0,265.5467289719626)"><line stroke="currentColor" x2="-6"></line><text fill="currentColor" x="-9" dy="0.32em">50</text></g><g class="tick" opacity="1" transform="translate(0,222.55607476635515)"><line stroke="currentColor" x2="-6"></line><text fill="currentColor" x="-9" dy="0.32em">60</text></g><g class="tick" opacity="1" transform="translate(0,179.56542056074767)"><line stroke="currentColor" x2="-6"></line><text fill="currentColor" x="-9" dy="0.32em">70</text></g><g class="tick" opacity="1" transform="translate(0,136.5747663551402)"><line stroke="currentColor" x2="-6"></line><text fill="currentColor" x="-9" dy="0.32em">80</text></g><g class="tick" opacity="1" transform="translate(0,93.58411214953271)"><line stroke="currentColor" x2="-6"></line><text fill="currentColor" x="-9" dy="0.32em">90</text></g><g class="tick" opacity="1" transform="translate(0,50.59345794392524)"><line stroke="currentColor" x2="-6"></line><text fill="currentColor" x="-9" dy="0.32em">100</text></g></g><g><circle cx="369.2592592592593" cy="153.2710280373832" r="2.5" style="fill: red;"></circle><circle cx="428.88888888888886" cy="290.84112149532706" r="2.5" style="fill: black;"></circle><circle cx="232.96296296296296" cy="458.50467289719626" r="2.5" style="fill: black;"></circle><circle cx="228.7037037037037" cy="445.60747663551405" r="2.5" style="fill: black;"></circle><circle cx="75.37037037037037" cy="449.9065420560747" r="2.5" style="fill: black;"></circle><circle cx="143.51851851851853" cy="97.38317757009347" r="2.5" style="fill: black;"></circle><circle cx="267.03703703703707" cy="351.02803738317755" r="2.5" style="fill: black;"></circle><circle cx="377.77777777777777" cy="312.33644859813086" r="2.5" style="fill: black;"></circle><circle cx="79.62962962962963" cy="376.822429906542" r="2.5" style="fill: black;"></circle><circle cx="28.51851851851852" cy="312.33644859813086" r="2.5" style="fill: black;"></circle><circle cx="32.77777777777777" cy="127.4766355140187" r="2.5" style="fill: black;"></circle><circle cx="41.2962962962963" cy="437.0093457943925" r="2.5" style="fill: black;"></circle><circle cx="437.4074074074074" cy="256.4485981308411" r="2.5" style="fill: black;"></circle><circle cx="377.77777777777777" cy="372.5233644859813" r="2.5" style="fill: black;"></circle><circle cx="279.8148148148148" cy="226.35514018691592" r="2.5" style="fill: black;"></circle><circle cx="24.25925925925926" cy="200.5607476635514" r="2.5" style="fill: black;"></circle><circle cx="394.8148148148148" cy="260.7476635514019" r="2.5" style="fill: black;"></circle><circle cx="407.5925925925926" cy="471.40186915887847" r="2.5" style="fill: black;"></circle><circle cx="100.92592592592592" cy="342.4299065420561" r="2.5" style="fill: black;"></circle><circle cx="416.11111111111114" cy="467.1028037383178" r="2.5" style="fill: black;"></circle><circle cx="232.96296296296296" cy="80.18691588785047" r="2.5" style="fill: black;"></circle><circle cx="437.4074074074074" cy="419.81308411214957" r="2.5" style="fill: black;"></circle><circle cx="41.2962962962963" cy="299.4392523364486" r="2.5" style="fill: black;"></circle><circle cx="198.88888888888889" cy="441.3084112149533" r="2.5" style="fill: black;"></circle><circle cx="279.8148148148148" cy="213.45794392523365" r="2.5" style="fill: black;"></circle><circle cx="58.33333333333333" cy="62.990654205607484" r="2.5" style="fill: black;"></circle><circle cx="360.7407407407407" cy="243.5514018691589" r="2.5" style="fill: black;"></circle><circle cx="262.77777777777777" cy="183.36448598130843" r="2.5" style="fill: black;"></circle><circle cx="117.96296296296296" cy="415.5140186915888" r="2.5" style="fill: black;"></circle><circle cx="105.18518518518519" cy="179.06542056074767" r="2.5" style="fill: black;"></circle><circle cx="382.03703703703707" cy="222.05607476635515" r="2.5" style="fill: black;"></circle><circle cx="437.4074074074074" cy="458.50467289719626" r="2.5" style="fill: black;"></circle></g><circle cx="500" cy="50" r="4" style="fill: red;"></circle><circle cx="500" cy="80" r="4" style="fill: black;"></circle><text x="510" y="50" style="font-size: 15px;" alignment-baseline="middle">Депо (1)</text><text x="510" y="80" style="font-size: 15px;" alignment-baseline="middle">Узлы (31)</text></svg>